<svg viewBox="0 0 300 200" xmlns="http://www.w3.org/2000/svg">
  <defs>
    <linearGradient id="searchGradient" x1="0%" y1="0%" x2="100%" y2="100%">
      <stop offset="0%" style="stop-color:#e0e7ff"/>
      <stop offset="100%" style="stop-color:#c7d2fe"/>
    </linearGradient>
  </defs>

  <!-- Magnifying glass -->
  <circle cx="120" cy="80" r="30" stroke="#6366f1" stroke-width="2" fill="url(#searchGradient)" opacity="0.6"/>
  <circle cx="120" cy="80" r="15" fill="none" stroke="#06b6d4" stroke-width="2"/>
  <line x1="135" y1="95" x2="150" y2="110" stroke="#06b6d4" stroke-width="2" stroke-linecap="round"/>

  <!-- Timeline segments -->
  <line x1="180" y1="60" x2="280" y2="60" stroke="#e2e8f0" stroke-width="2"/>
  <circle cx="200" cy="60" r="4" fill="#cbd5e1"/>
  <circle cx="230" cy="60" r="4" fill="#cbd5e1"/>
  <circle cx="260" cy="60" r="4" fill="#cbd5e1"/>

  <line x1="180" y1="90" x2="280" y2="90" stroke="#e2e8f0" stroke-width="2"/>
  <circle cx="210" cy="90" r="4" fill="#cbd5e1"/>
  <circle cx="240" cy="90" r="4" fill="#cbd5e1"/>

  <line x1="180" y1="120" x2="280" y2="120" stroke="#e2e8f0" stroke-width="2"/>
  <circle cx="220" cy="120" r="4" fill="#cbd5e1"/>
  <circle cx="250" cy="120" r="4" fill="#cbd5e1"/>

  <!-- Connecting lines from search to timeline -->
  <path d="M150 80 Q165 75 180 80 M150 80 Q165 85 180 100 M150 80 Q165 95 180 120" stroke="#e2e8f0" stroke-width="1" opacity="0.3" fill="none"/>
</svg>