<svg viewBox="0 0 300 200" xmlns="http://www.w3.org/2000/svg">
  <defs>
    <linearGradient id="timelineGradient" x1="0%" y1="0%" x2="100%" y2="0%">
      <stop offset="0%" style="stop-color:#6366f1"/>
      <stop offset="100%" style="stop-color:#06b6d4"/>
    </linearGradient>
    <linearGradient id="userGradient" x1="0%" y1="0%" x2="100%" y2="100%">
      <stop offset="0%" style="stop-color:#e0e7ff"/>
      <stop offset="100%" style="stop-color:#c7d2fe"/>
    </linearGradient>
  </defs>

  <!-- Central timeline -->
  <path d="M50 100 Q100 80 150 100 T250 100" stroke="url(#timelineGradient)" stroke-width="3" fill="none"/>

  <!-- Central memory orb -->
  <circle cx="150" cy="100" r="18" fill="url(#userGradient)" stroke="#6366f1" stroke-width="2"/>

  <!-- Branching lines to user avatars -->
  <path d="M150 100 Q130 70 110 50" stroke="#06b6d4" stroke-width="2" fill="none"/>
  <path d="M150 100 Q170 70 190 50" stroke="#06b6d4" stroke-width="2" fill="none"/>
  <path d="M150 100 Q140 130 130 150" stroke="#06b6d4" stroke-width="2" fill="none"/>
  <path d="M150 100 Q160 130 170 150" stroke="#06b6d4" stroke-width="2" fill="none"/>

  <!-- User avatars -->
  <circle cx="110" cy="50" r="12" fill="#fef3c7" stroke="#f59e0b" stroke-width="2"/>
  <circle cx="190" cy="50" r="12" fill="#cffafe" stroke="#06b6d4" stroke-width="2"/>
  <circle cx="130" cy="150" r="12" fill="#e0e7ff" stroke="#6366f1" stroke-width="2"/>
  <circle cx="170" cy="150" r="12" fill="#fef3c7" stroke="#f59e0b" stroke-width="2"/>

  <!-- Simple user icons -->
  <circle cx="110" cy="47" r="3" fill="#f59e0b"/>
  <circle cx="190" cy="47" r="3" fill="#06b6d4"/>
  <circle cx="130" cy="147" r="3" fill="#6366f1"/>
  <circle cx="170" cy="147" r="3" fill="#f59e0b"/>
</svg>